<svg width="12" height="13" viewBox="0 0 12 13" fill="none" xmlns="http://www.w3.org/2000/svg">
  <path d="M2.0498 3.34961H10.4495L9.61999 10.8148C9.59156 11.0717 9.46936 11.3091 9.27679 11.4815C9.08422 11.654 8.83482 11.7493 8.57634 11.7493H3.92293C3.66445 11.7493 3.41504 11.654 3.22247 11.4815C3.0299 11.3091 2.9077 11.0717 2.87927 10.8148L2.0498 3.34961Z" stroke="#D41122" stroke-linecap="round" stroke-linejoin="round"/>
  <path d="M3.80571 1.85215C3.89062 1.67207 4.02499 1.51984 4.19314 1.41322C4.36129 1.30661 4.55629 1.25 4.75539 1.25H7.74357C7.94276 1.2499 8.13787 1.30646 8.30612 1.41308C8.47437 1.5197 8.60882 1.67198 8.69378 1.85215L9.39935 3.34991H3.09961L3.80571 1.85215Z" stroke="#D41122" stroke-linecap="round" stroke-linejoin="round"/>
  <path d="M1 3.34961H11.4996" stroke="#D41122" stroke-linecap="round" stroke-linejoin="round"/>
  <path d="M5.19922 5.97461V8.5995" stroke="#D41122" stroke-linecap="round" stroke-linejoin="round"/>
  <path d="M7.2998 5.97461V8.5995" stroke="#D41122" stroke-linecap="round" stroke-linejoin="round"/>
</svg>
