<svg width="48" height="48" viewBox="0 0 48 48" fill="none" xmlns="http://www.w3.org/2000/svg">
<path fill-rule="evenodd" clip-rule="evenodd" d="M38.4491 23.4503C38.4491 18.2441 31.9804 14 24.0007 14C16.0211 14 9.55231 18.2441 9.55231 23.4503C9.55231 23.5846 9.55078 23.956 9.55078 24.0035C9.55078 29.5272 15.2045 34 23.9988 34C32.8466 34 38.4491 29.5278 38.4491 24.0044C38.4491 23.8116 38.4491 23.7005 38.4491 23.4503Z" fill="#2D3277"/>
<path fill-rule="evenodd" clip-rule="evenodd" d="M37.8959 23.4455C37.8959 28.3537 31.6758 32.3329 24.0033 32.3329C16.3303 32.3329 10.1107 28.3537 10.1107 23.4455C10.1107 18.5371 16.3303 14.5578 24.0033 14.5578C31.6758 14.5578 37.8959 18.5371 37.8959 23.4455Z" fill="#00B1EA"/>
<path fill-rule="evenodd" clip-rule="evenodd" d="M19.3902 20.6417C19.3828 20.6556 19.2445 20.799 19.3342 20.9144C19.5536 21.1943 20.2307 21.3548 20.9155 21.2015C21.3232 21.1098 21.846 20.694 22.3521 20.2923C22.9008 19.8565 23.4448 19.42 23.9922 19.2467C24.5715 19.0622 24.9427 19.1412 25.1879 19.2153C25.4574 19.2957 25.7736 19.4727 26.278 19.8515C27.229 20.5661 31.051 23.9022 31.7116 24.4792C32.2432 24.2389 34.6073 23.2214 37.8196 22.5135C37.5404 20.8007 36.4989 19.2338 34.9187 17.951C32.7165 18.8757 30.026 19.3582 27.3945 18.0731C27.381 18.0675 25.957 17.3936 24.5519 17.4267C22.4643 17.4753 21.5595 18.3787 20.6025 19.3353L19.3902 20.6417Z" fill="#FFFFFE"/>
<path fill-rule="evenodd" clip-rule="evenodd" d="M31.5563 24.842C31.5115 24.8019 27.062 20.9087 26.0537 20.1512C25.4702 19.7136 25.1462 19.6019 24.8055 19.5585C24.628 19.5357 24.383 19.5683 24.2116 19.6154C23.7428 19.743 23.1295 20.1529 22.585 20.5846C22.0215 21.0335 21.4899 21.4563 20.997 21.5667C20.3669 21.708 19.5974 21.5412 19.2463 21.3038C19.1043 21.2082 19.0041 21.0977 18.956 20.9854C18.8264 20.6848 19.0655 20.4443 19.1047 20.404L20.3325 19.0757C20.4754 18.9337 20.6193 18.791 20.7663 18.6505C20.3702 18.7021 20.004 18.8034 19.6473 18.9025C19.2025 19.0277 18.7743 19.1469 18.3415 19.1465C18.161 19.1465 17.1924 18.9877 17.0088 18.938C15.8974 18.6337 14.9223 18.3377 13.4654 17.6575C11.7197 18.9567 10.5525 20.5816 10.2151 22.3712C10.466 22.4377 10.87 22.5581 11.0399 22.5954C14.9902 23.474 16.2206 24.3787 16.4438 24.5676C16.6854 24.2988 17.0341 24.1287 17.4231 24.1287C17.8604 24.1291 18.254 24.3487 18.4936 24.6882C18.7199 24.5096 19.0318 24.3565 19.4351 24.357C19.6183 24.357 19.8082 24.3909 20.0001 24.4561C20.446 24.6092 20.676 24.9058 20.7951 25.1744C20.9447 25.1069 21.1286 25.057 21.3451 25.0576C21.5574 25.0576 21.7789 25.1062 22.0019 25.2025C22.7303 25.5152 22.8438 26.2305 22.7775 26.77C22.8294 26.7639 22.8819 26.7613 22.9348 26.7613C23.7982 26.7619 24.5006 27.4639 24.5004 28.3279C24.5004 28.5952 24.4322 28.8468 24.3131 29.0674C24.5481 29.1994 25.147 29.4984 25.673 29.4316C26.0932 29.3786 26.2526 29.2351 26.3097 29.1545C26.3489 29.0988 26.39 29.0338 26.3517 28.9875L25.2372 27.7492C25.2372 27.7492 25.0536 27.5757 25.1144 27.5086C25.1771 27.44 25.2903 27.5386 25.3707 27.6055C25.9381 28.0792 26.6303 28.7943 26.6303 28.7943C26.6422 28.8021 26.688 28.8927 26.9443 28.9387C27.1648 28.9781 27.5551 28.9552 27.8251 28.7331C27.8933 28.6769 27.9615 28.6072 28.0188 28.5349C28.014 28.5386 28.0103 28.5434 28.0061 28.5449C28.291 28.1801 27.9743 27.8111 27.9743 27.8111L26.6734 26.3499C26.6734 26.3499 26.4869 26.1778 26.5503 26.1085C26.607 26.0486 26.7268 26.1392 26.8084 26.207C27.2201 26.5515 27.8025 27.1357 28.3603 27.6822C28.4694 27.7619 28.9595 28.0653 29.6089 27.6388C30.0032 27.3803 30.082 27.0629 30.0709 26.8234C30.0435 26.5062 29.7963 26.2802 29.7963 26.2802L28.0188 24.4931C28.0188 24.4931 27.8308 24.3328 27.8972 24.2518C27.9517 24.1836 28.0732 24.2818 28.1534 24.3487C28.7194 24.8224 30.2521 26.2279 30.2521 26.2279C30.2743 26.2434 30.8038 26.6204 31.4583 26.2037C31.6924 26.0539 31.8419 25.8284 31.8547 25.5664C31.8767 25.1119 31.5563 24.842 31.5563 24.842Z" fill="#FFFFFE"/>
<path fill-rule="evenodd" clip-rule="evenodd" d="M22.9345 27.1076C22.6588 27.1043 22.3574 27.2681 22.3181 27.2442C22.2962 27.2298 22.3349 27.1191 22.3606 27.0553C22.387 26.9917 22.7503 25.8995 21.8653 25.5203C21.1882 25.2293 20.7744 25.5566 20.6319 25.7043C20.5949 25.7431 20.5779 25.74 20.5738 25.6906C20.56 25.4941 20.4723 24.962 19.8877 24.7836C19.0524 24.5282 18.5155 25.1108 18.3794 25.3212C18.3182 24.8453 17.9159 24.4757 17.4228 24.4752C16.8874 24.4748 16.4529 24.9089 16.4523 25.444C16.4523 25.9796 16.8861 26.4137 17.4217 26.4137C17.682 26.4143 17.9181 26.3102 18.0921 26.1432C18.0978 26.1482 18.0997 26.1573 18.0971 26.1761C18.0564 26.4156 17.9813 27.2869 18.8936 27.6414C19.2595 27.7837 19.5706 27.678 19.8287 27.497C19.9055 27.4428 19.918 27.4659 19.9068 27.538C19.8742 27.7619 19.9158 28.2417 20.5884 28.5144C21.1002 28.7224 21.4029 28.5098 21.6016 28.3264C21.6876 28.2476 21.7113 28.2602 21.7157 28.3822C21.7401 29.0304 22.2789 29.5453 22.933 29.5459C23.6071 29.5466 24.1531 29.0018 24.1534 28.328C24.154 27.6541 23.6082 27.1148 22.9345 27.1076Z" fill="#FFFFFE"/>
<path fill-rule="evenodd" clip-rule="evenodd" d="M22.9346 29.459C22.3237 29.4584 21.8273 28.984 21.8046 28.3789C21.8031 28.3273 21.7979 28.1894 21.6811 28.1894C21.6332 28.1894 21.5916 28.2182 21.5435 28.2615C21.4095 28.3859 21.2384 28.5127 20.9883 28.5127C20.8753 28.5127 20.7522 28.4861 20.6226 28.4332C19.9777 28.172 19.9688 27.7288 19.9951 27.5506C20.0021 27.5034 20.0045 27.4537 19.9716 27.4154L19.9322 27.3796H19.8919C19.859 27.3796 19.8252 27.3932 19.7797 27.4254C19.5931 27.5565 19.4143 27.6199 19.2324 27.6199C19.1322 27.6199 19.0294 27.5998 18.9266 27.5602C18.0774 27.2298 18.1445 26.4283 18.1858 26.1872C18.1919 26.1382 18.18 26.1003 18.1488 26.0752L18.0889 26.0258L18.0327 26.0794C17.8672 26.2388 17.6509 26.3261 17.4233 26.3261C16.937 26.3255 16.541 25.9306 16.5414 25.444C16.5416 24.9575 16.938 24.5626 17.4244 24.5632C17.8637 24.5632 18.2381 24.8936 18.2941 25.3327L18.3246 25.5695L18.4546 25.3691C18.4692 25.3456 18.8255 24.807 19.4807 24.8076C19.6053 24.8076 19.7338 24.8276 19.8636 24.8675C20.3859 25.0272 20.4741 25.5004 20.4878 25.6978C20.497 25.8128 20.5788 25.8182 20.595 25.8182C20.64 25.8182 20.6732 25.7897 20.6969 25.7651C20.7953 25.6623 21.0101 25.4909 21.346 25.4909C21.4997 25.4915 21.6633 25.5279 21.8321 25.6006C22.6624 25.9567 22.2858 27.0116 22.2812 27.0224C22.21 27.1971 22.2071 27.2744 22.2742 27.3191L22.3067 27.3348H22.3309C22.3685 27.3348 22.4151 27.3184 22.4918 27.2923C22.6049 27.2533 22.7752 27.1947 22.9348 27.195H22.9353C23.5599 27.2017 24.0683 27.7103 24.0678 28.328C24.0674 28.952 23.559 29.459 22.9346 29.459ZM31.7284 24.3757C30.3578 23.1797 27.19 20.4258 26.3321 19.782C25.8418 19.4131 25.5075 19.2186 25.2144 19.131C25.0824 19.0911 24.8998 19.0461 24.6651 19.0456C24.4468 19.0456 24.2125 19.085 23.9679 19.163C23.4131 19.3384 22.861 19.7774 22.3267 20.2022L22.2991 20.2239C21.8014 20.6195 21.2869 21.0287 20.8977 21.1156C20.7278 21.1537 20.5531 21.1736 20.3789 21.1736C19.9429 21.1729 19.5513 21.0472 19.4045 20.8599C19.3801 20.829 19.3957 20.7791 19.4524 20.7068L19.46 20.6974L20.6658 19.3978C21.6099 18.4534 22.5021 17.5617 24.5555 17.5145C24.5893 17.5134 24.6243 17.5129 24.6581 17.5129C25.9362 17.5136 27.2136 18.0858 27.3571 18.1522C28.5555 18.7368 29.7926 19.0336 31.0358 19.0347C32.3317 19.035 33.6688 18.7143 35.0745 18.067C34.9175 17.9348 34.7541 17.8063 34.5862 17.6804C33.351 18.2156 32.1747 18.4861 31.0393 18.4859C29.8795 18.4848 28.7214 18.2064 27.5967 17.6578C27.5374 17.6295 26.1267 16.9641 24.6587 16.9634C24.6202 16.9634 24.5812 16.9641 24.5429 16.9647C22.8181 17.0052 21.8467 17.6175 21.1933 18.1542C20.5579 18.1696 20.0095 18.3227 19.5216 18.4591C19.0865 18.5802 18.7107 18.6849 18.3442 18.6847C18.193 18.6847 17.9212 18.671 17.897 18.6699C17.4752 18.6571 15.3511 18.1363 13.6619 17.4966C13.4894 17.6188 13.3234 17.7447 13.1618 17.8734C14.9266 18.5969 17.0744 19.1565 17.7526 19.2005C17.941 19.2127 18.1421 19.234 18.3431 19.2345C18.7916 19.2345 19.2391 19.1088 19.6721 18.9875C19.9281 18.9158 20.2105 18.8376 20.5072 18.7808C20.4281 18.8585 20.3491 18.9376 20.2696 19.0169L19.0444 20.3422C18.9482 20.4396 18.7386 20.699 18.8769 21.0191C18.9316 21.1481 19.0431 21.2716 19.1988 21.3766C19.4909 21.573 20.0136 21.7061 20.4991 21.7063C20.6832 21.7067 20.8579 21.688 21.0179 21.6521C21.5315 21.5371 22.0701 21.1078 22.6408 20.6541C23.0953 20.293 23.7416 19.8343 24.236 19.6997C24.3741 19.662 24.544 19.6385 24.6803 19.6385C24.7212 19.6389 24.7596 19.6402 24.7955 19.6455C25.1222 19.6868 25.4383 19.7979 26.0021 20.2213C27.0077 20.9769 31.4579 24.8697 31.5012 24.908C31.5041 24.9104 31.7881 25.1552 31.7683 25.5623C31.7576 25.789 31.6317 25.9905 31.4128 26.1303C31.2229 26.251 31.0269 26.3122 30.8289 26.3122C30.5314 26.3115 30.3266 26.1724 30.3131 26.1628C30.2968 26.1495 28.772 24.7514 28.2111 24.2818C28.1218 24.2078 28.0351 24.1409 27.9473 24.1409C27.9005 24.1407 27.8589 24.161 27.8308 24.1958C27.7426 24.3047 27.8415 24.4554 27.9578 24.5545L29.7388 26.3446C29.7414 26.3466 29.9607 26.5524 29.9849 26.8271C29.9988 27.1239 29.857 27.372 29.5619 27.5654C29.352 27.704 29.1392 27.7741 28.9307 27.7741C28.657 27.7741 28.4653 27.6497 28.4228 27.6199L28.1671 27.3683C27.7006 26.9088 27.2184 26.4339 26.8653 26.1393C26.7793 26.0678 26.6876 26.0016 26.5998 26.0016C26.5565 26.0016 26.5177 26.0177 26.4876 26.0493C26.4476 26.094 26.4195 26.1743 26.5199 26.3076C26.561 26.3625 26.6098 26.4078 26.6098 26.4078L27.9094 27.868C27.9201 27.881 28.1771 28.1862 27.9386 28.4907L27.8929 28.5488C27.8539 28.5919 27.8119 28.6314 27.772 28.6656C27.5503 28.8474 27.2543 28.8666 27.1369 28.8666C27.0742 28.8666 27.0136 28.8614 26.9611 28.8518C26.8331 28.8289 26.7466 28.7932 26.705 28.744L26.6891 28.7274C26.6183 28.654 25.9632 27.9854 25.4213 27.5328C25.3498 27.4729 25.2605 27.3975 25.1686 27.3975C25.1229 27.3975 25.0824 27.4154 25.0512 27.45C24.9438 27.5674 25.105 27.7432 25.173 27.8074L26.2816 29.0297C26.2803 29.0406 26.2666 29.0659 26.2396 29.1044C26.1999 29.1591 26.0655 29.2937 25.6635 29.3442C25.6151 29.3505 25.5655 29.3532 25.5162 29.3532C25.1015 29.3532 24.6594 29.1519 24.4314 29.031C24.535 28.8119 24.5888 28.5706 24.5888 28.3286C24.5893 27.416 23.8483 26.674 22.9363 26.6733C22.9167 26.6733 22.8958 26.674 22.8765 26.6746C22.9063 26.2582 22.8473 25.4693 22.0379 25.1221C21.8046 25.0213 21.5725 24.9701 21.3466 24.9701C21.1695 24.9701 20.9996 25.0004 20.8398 25.0616C20.6718 24.7355 20.3935 24.4981 20.03 24.3742C19.8294 24.3047 19.6297 24.2696 19.4365 24.2696C19.0995 24.2696 18.7894 24.369 18.5125 24.5656C18.247 24.2359 17.8465 24.0405 17.4248 24.0405C17.0557 24.0405 16.7004 24.1882 16.4373 24.4489C16.0923 24.1853 14.7236 23.3161 11.0602 22.4843C10.8827 22.4436 10.4756 22.3273 10.2262 22.2543C10.1851 22.4525 10.1533 22.6529 10.1326 22.8554C10.1326 22.8554 10.8082 23.017 10.9408 23.0471C14.6834 23.878 15.92 24.7425 16.1289 24.9058C16.0579 25.0759 16.0213 25.2593 16.0211 25.444C16.0204 26.217 16.6492 26.8469 17.4229 26.8476C17.5096 26.8476 17.5956 26.8399 17.6801 26.8245C17.7966 27.3932 18.1689 27.8244 18.738 28.0459C18.9042 28.1097 19.0723 28.1426 19.2374 28.1426C19.3443 28.1428 19.4517 28.1295 19.5569 28.1028C19.6619 28.3693 19.8982 28.7021 20.4268 28.9169C20.6124 28.9916 20.7975 29.0304 20.9776 29.0304C21.1249 29.0304 21.2686 29.0045 21.4058 28.9544C21.6592 29.5712 22.262 29.9798 22.9342 29.9798C23.3796 29.9804 23.8073 29.799 24.1188 29.478C24.386 29.6263 24.9497 29.8948 25.5188 29.8955C25.5927 29.8955 25.6617 29.8905 25.731 29.8822C26.296 29.8105 26.5595 29.5897 26.6802 29.4176C26.7022 29.3876 26.7218 29.3558 26.7388 29.3225C26.8723 29.3612 27.0191 29.3926 27.1872 29.3928C27.4958 29.3928 27.7923 29.2874 28.0915 29.0694C28.386 28.8572 28.5955 28.5525 28.6256 28.2933C28.6262 28.2896 28.6265 28.2857 28.6269 28.282C28.7264 28.3025 28.8279 28.3127 28.9296 28.3127C29.2476 28.3127 29.5606 28.2136 29.8592 28.018C30.4358 27.6401 30.5355 27.1464 30.5261 26.8234C30.6272 26.8443 30.7302 26.8552 30.8324 26.8552C31.1312 26.8552 31.4241 26.7652 31.7031 26.5873C32.0606 26.359 32.2758 26.009 32.3086 25.6022C32.3306 25.3258 32.2622 25.0465 32.1163 24.8067C33.0823 24.3907 35.2895 23.5853 37.889 22.9996C37.8735 22.7979 37.8443 22.5989 37.8082 22.4007C34.6627 23.0987 32.316 24.1141 31.7284 24.3757Z" fill="#2D3277"/>
</svg>
